<svg width="84" height="84" viewBox="0 0 84 84" fill="none" xmlns="http://www.w3.org/2000/svg">
<path fill-rule="evenodd" clip-rule="evenodd" d="M42 0.333252C65 0.333252 83.6667 19.0416 83.6667 41.9999L83.6507 43.1656C83.0327 65.6273 64.6102 83.6666 42 83.6666C19.0417 83.6666 0.333344 64.9999 0.333344 41.9999C0.333344 19.0416 19.0417 0.333252 42 0.333252ZM25.3333 50.2499C26.5833 51.4583 28.5417 51.4583 29.75 50.2083L42 37.9166L54.25 50.2083C55.4583 51.4583 57.4583 51.4583 58.6667 50.2499C59.9167 48.9999 59.9167 47.0416 58.6667 45.8333L44.2083 31.2916C43.625 30.7083 42.8333 30.3749 42 30.3749C41.1667 30.3749 40.375 30.7083 39.7917 31.2916L25.3333 45.8333C24.7083 46.4166 24.4167 47.2083 24.4167 47.9999C24.4167 48.8333 24.7083 49.6249 25.3333 50.2499Z" fill="#FFD100"/>
</svg>
