<svg width="831" height="80" viewBox="0 0 831 80" fill="none" xmlns="http://www.w3.org/2000/svg">
<path d="M288.705 78.3705V60.2579C288.705 56.4035 291.807 53.3012 295.661 53.3012H298.45C298.826 53.3012 299.14 53.6145 299.14 53.9906V56.7795C299.14 57.1556 298.826 57.4689 298.45 57.4689H296.351C294.439 57.4689 292.872 59.0358 292.872 60.9473V64.645H295.473C299.328 64.645 302.43 67.7474 302.43 71.6018V78.3705H288.705Z" fill="white"/>
<path d="M156.934 13.3469H151.826C151.137 13.3469 150.541 13.911 150.541 14.6317V51.5463H135.249V20.9931H104.696V46.4698C104.696 53.4892 110.399 59.1925 117.418 59.1925H127.603V65.7418C127.603 69.2515 124.751 72.1032 121.242 72.1032H117.418C116.729 72.1032 116.134 72.6672 116.134 73.388V78.4958C116.134 79.1852 116.698 79.7806 117.418 79.7806H122.526C129.546 79.7806 135.249 74.0774 135.249 67.058V59.2551H158.156V14.6317C158.187 13.911 157.623 13.3469 156.934 13.3469ZM127.634 51.5463H118.735C115.225 51.5463 112.373 48.6947 112.373 45.185V28.6392H127.666V51.5463H127.634Z" fill="#FCD112"/>
<path d="M84.3583 20.9931H73.9858C73.8605 20.9931 73.8292 20.8364 73.9545 20.805L92.3805 13.5036C92.8192 13.2842 93.0699 12.8455 93.0699 12.3755V7.54963C93.0699 6.60953 92.0671 5.9828 91.221 6.42151L72.1996 14.0363C68.5959 15.8225 66.3397 19.5202 66.3397 23.5313V28.6392H83.1048C86.6145 28.6392 89.4662 31.4908 89.4662 35.0005V51.5463H58.4742V20.9931H27.921V46.4698C27.921 53.4892 33.6242 59.1924 40.6436 59.1924H50.8281V65.9612C50.8281 69.4709 47.9764 72.3225 44.4667 72.3225H40.6436C39.9542 72.3225 39.3588 72.8866 39.3588 73.6073V78.7152C39.3588 79.4046 39.9229 80 40.6436 80H45.7515C52.7709 80 58.4742 74.2967 58.4742 67.2773V59.2551H97.081V33.7784C97.081 26.6963 91.3777 20.9931 84.3583 20.9931ZM50.8281 51.5463H41.9284C38.4187 51.5463 35.5671 48.6947 35.5671 45.185V28.6392H50.8594V51.5463H50.8281Z" fill="#FCD112"/>
<path d="M72.7324 7.04824L91.9104 0.0601619C92.4745 -0.127858 93.0385 0.279519 93.0385 0.843578V2.84912C93.0385 3.19383 92.8192 3.53853 92.4745 3.63254L73.3278 10.652C72.7637 10.84 72.1997 10.4326 72.1997 9.86854V7.83165C72.1997 7.48695 72.419 7.14225 72.7324 7.04824Z" fill="#EC2637"/>
<path d="M259.624 17.17V12.2188C259.624 11.6234 259.154 11.1533 258.559 11.1533H249.252C248.656 11.1533 248.186 11.6234 248.186 12.2188V17.2013H239.161C238.566 17.2013 238.096 17.6714 238.096 18.2668V23.782C238.096 24.3774 238.566 24.8475 239.161 24.8475H268.21C268.806 24.8475 269.276 24.3774 269.276 23.782V18.2354C269.276 17.64 268.806 17.17 268.21 17.17H259.624Z" fill="#EC2637"/>
<path d="M271.501 32.4623H266.393C265.704 32.4623 265.108 33.0263 265.108 33.7471V51.5776H257.462V41.3619C257.462 40.6725 256.898 40.0771 256.177 40.0771H251.101C250.411 40.0771 249.816 40.6411 249.816 41.3619V51.5463H248.531C245.021 51.5463 242.17 48.6947 242.17 45.1849V33.7157C242.17 33.0263 241.606 32.4309 240.885 32.4309H235.777C235.088 32.4309 234.492 32.995 234.492 33.7157V46.4384C234.492 48.2559 234.868 49.9795 235.558 51.5463H219.231V20.993H203.093C197.233 20.993 192.47 25.7562 192.47 31.6162V51.5463H177.177V29.8927C177.177 29.2033 176.613 28.6079 175.893 28.6079H170.816C170.127 28.6079 169.531 29.1719 169.531 29.8927V65.9298C169.531 69.4395 166.68 72.2912 163.17 72.2912H159.128C158.532 72.2912 158.062 72.7612 158.062 73.3566V78.8719C158.062 79.4673 158.532 79.9373 159.128 79.9373H164.423C171.443 79.9373 177.146 74.234 177.146 67.2146V59.1924H192.438V79.9373H208.702C214.562 79.9373 219.325 75.1741 219.325 69.3142V59.1611H235.84C236.184 59.1611 236.498 59.0358 236.748 58.7851L238.503 57.0302C239.945 58.127 241.637 58.8791 243.517 59.1611H251.069C251.414 59.1611 251.727 59.0358 251.978 58.7851L253.733 57.0302C255.174 58.127 256.867 58.8791 258.747 59.1611H272.817V33.6844C272.754 33.0263 272.19 32.4623 271.501 32.4623ZM211.648 66.9953C211.648 69.9409 209.266 72.2912 206.352 72.2912H200.21V59.1611H211.679V66.9953H211.648ZM211.648 51.5463H200.179V33.9351C200.179 31.0208 202.56 28.6392 205.474 28.6392H211.616V51.5463H211.648Z" fill="#FCD112"/>
<path d="M722.968 13.3469H717.892C717.202 13.3469 716.607 13.911 716.607 14.6317V51.5463H701.314V20.9931H670.761V46.4384C670.761 53.4578 676.465 59.1611 683.484 59.1611H693.668V65.7105C693.668 69.2202 690.817 72.0718 687.307 72.0718H683.484C682.795 72.0718 682.199 72.6359 682.199 73.3566V78.4332C682.199 79.1226 682.763 79.718 683.484 79.718H688.56C695.58 79.718 701.283 74.0147 701.283 66.9953V59.1925H724.19V14.6317C724.222 13.911 723.658 13.3469 722.968 13.3469ZM693.668 51.5463H684.769C681.259 51.5463 678.407 48.6947 678.407 45.185V28.6392H693.7V51.5463H693.668Z" fill="white"/>
<path d="M650.392 20.9931H640.02C639.895 20.9931 639.863 20.8364 639.989 20.8051L658.415 13.5036C658.853 13.2843 659.104 12.8455 659.104 12.3755V7.54965C659.104 6.60955 658.101 5.98282 657.255 6.42153L638.234 14.0363C634.63 15.8225 632.374 19.5203 632.374 23.5313V28.6392H649.139C652.649 28.6392 655.5 31.4909 655.5 35.0006V51.5463H624.508V20.9931H593.955V46.4384C593.955 53.4579 599.658 59.1611 606.678 59.1611H616.862V65.9298C616.862 69.4396 614.011 72.2912 610.501 72.2912H606.678C605.988 72.2912 605.393 72.8553 605.393 73.576V78.6525C605.393 79.3419 605.957 79.9373 606.678 79.9373H611.754C618.774 79.9373 624.477 74.2341 624.477 67.2147V59.1925H663.084V33.7158C663.115 26.6964 657.443 20.9931 650.392 20.9931ZM616.862 51.5463H607.963C604.453 51.5463 601.601 48.6947 601.601 45.185V28.6392H616.893V51.5463H616.862Z" fill="white"/>
<path d="M639.362 10.652L658.54 3.6639C658.885 3.53855 659.104 3.22518 659.104 2.88048V0.843596C659.104 0.248199 658.509 -0.159177 657.976 0.0601793L638.798 7.04825C638.453 7.1736 638.234 7.48697 638.234 7.83167V9.83722C638.234 10.4326 638.829 10.84 639.362 10.652Z" fill="white"/>
<path d="M593.172 72.3225H571.831C571.393 72.3225 571.048 72.7926 571.048 73.388V78.9032C571.048 79.4986 571.393 79.9687 571.831 79.9687H593.172C593.61 79.9687 593.955 79.4986 593.955 78.9032V73.388C593.955 72.7926 593.61 72.3225 593.172 72.3225Z" fill="white"/>
<path d="M581.232 32.4936H576.156C575.466 32.4936 574.871 33.0577 574.871 33.7784V51.5777H547.514H537.424V59.2238H548.016C550.617 59.2238 552.716 61.3233 552.716 63.9243V65.9925C552.716 69.5022 549.864 72.3539 546.355 72.3539H528.43C524.983 72.3539 522.163 69.5336 522.163 66.0865V40.7665C522.163 40.0771 521.599 39.513 520.909 39.513H515.77C515.081 39.513 514.517 40.0771 514.517 40.7665V67.4653C514.517 74.3907 520.126 80 527.051 80H547.608C554.628 80 560.331 74.2967 560.331 67.2773V61.01C560.331 60.4146 560.268 59.8192 560.174 59.2551H582.517V51.6403V51.609V33.8098C582.517 33.0577 581.922 32.4936 581.232 32.4936Z" fill="white"/>
<path d="M819.485 20.9931H771.133V48.5693C771.133 49.6034 771.289 50.6062 771.571 51.5463H755.872V29.8927C755.872 29.2033 755.308 28.6079 754.587 28.6079H749.51C748.821 28.6079 748.225 29.1719 748.225 29.8927V65.9298C748.225 69.4395 745.374 72.2912 741.864 72.2912H737.822C737.226 72.2912 736.756 72.7612 736.756 73.3566V78.8719C736.756 79.4673 737.226 79.9373 737.822 79.9373H743.118C750.137 79.9373 755.84 74.234 755.84 67.2146V59.1925H778.747V58.7537C779.688 59.0358 780.69 59.1925 781.724 59.1925H830.108V31.6162C830.108 25.7562 825.345 20.9931 819.485 20.9931ZM801.686 51.5463H784.075C781.16 51.5463 778.779 49.1647 778.779 46.2504V28.6392H801.686V51.5463ZM822.462 51.5463H809.332V28.6392H817.135C820.08 28.6392 822.431 31.0208 822.431 33.9351V51.5463H822.462Z" fill="white"/>
<path d="M8.14753 79.9373H1.25347C0.56406 79.9373 0 79.3733 0 78.6839V71.7898C0 71.1004 0.56406 70.5363 1.25347 70.5363H8.14753C8.83694 70.5363 9.401 71.1004 9.401 71.7898V78.6839C9.401 79.3733 8.83694 79.9373 8.14753 79.9373Z" fill="white"/>
<path d="M485.812 32.4623H480.704C480.015 32.4623 479.42 33.0263 479.42 33.7471V51.5776H474.186H465.506V33.7471C465.506 26.7277 459.803 21.0244 452.783 21.0244H437.084C436.896 21.8392 436.77 22.6852 436.77 23.5627V28.6705H451.499C455.008 28.6705 457.86 31.5222 457.86 35.0319V51.5776H426.868V20.9931H396.315V46.4384C396.315 53.4578 402.018 59.1611 409.037 59.1611H419.222V65.9298C419.222 69.4395 416.37 72.2912 412.861 72.2912H409.037C408.348 72.2912 407.753 72.8552 407.753 73.576V78.6525C407.753 79.3419 408.317 79.9373 409.037 79.9373H414.114C421.133 79.9373 426.837 74.234 426.837 67.2146V59.1925H487.003V51.5463V33.7157C487.066 33.0263 486.502 32.4623 485.812 32.4623ZM419.253 51.5463H410.354C406.844 51.5463 403.992 48.6947 403.992 45.185V28.6392H419.285V51.5463H419.253Z" fill="white"/>
<path d="M364.539 20.9931H335.24V46.4384C335.24 53.4578 340.943 59.1611 347.962 59.1611H353.446C356.047 59.1611 358.147 61.2607 358.147 63.8616V65.9298C358.147 69.4395 355.295 72.2912 351.785 72.2912H333.861C330.414 72.2912 327.593 69.4709 327.593 66.0238V45.1536C327.593 44.4642 327.029 43.9002 326.34 43.9002H321.201C320.511 43.9002 319.947 44.4642 319.947 45.1536V67.4027C319.947 74.3281 325.557 79.9373 332.482 79.9373H353.039C360.058 79.9373 365.762 74.234 365.762 67.2146V60.9473C365.762 55.7454 361.562 51.5463 356.361 51.5463H349.216C345.706 51.5463 342.854 48.6947 342.854 45.185V28.6392H364.508C365.197 28.6392 365.762 28.0752 365.762 27.3857V22.2465C365.793 21.5571 365.229 20.9931 364.539 20.9931Z" fill="white"/>
<path d="M476.349 70.5363H469.455C468.765 70.5363 468.201 71.1004 468.201 71.7898V78.6839C468.201 79.3733 468.765 79.9373 469.455 79.9373H476.349C477.038 79.9373 477.602 79.3733 477.602 78.6839V71.7898C477.602 71.1004 477.038 70.5363 476.349 70.5363Z" fill="white"/>
<path d="M445.2 13.1902H452.094C452.783 13.1902 453.347 12.6262 453.347 11.9368V5.04271C453.347 4.35331 452.783 3.78925 452.094 3.78925H445.2C444.511 3.78925 443.946 4.35331 443.946 5.04271V11.9368C443.946 12.6575 444.511 13.1902 445.2 13.1902Z" fill="white"/>
<path d="M383.623 3.78925H378.484C377.795 3.78925 377.231 4.35331 377.231 5.04271V61.48C377.231 62.1694 377.795 62.7335 378.484 62.7335H383.623C384.313 62.7335 384.877 62.1694 384.877 61.48V5.04271C384.877 4.35331 384.313 3.78925 383.623 3.78925Z" fill="white"/>
<path d="M7.2701 58.9418H2.13089C1.44148 58.9418 0.877422 58.3777 0.877422 57.6883V7.54964C0.877422 6.86023 1.44148 6.29617 2.13089 6.29617H7.2701C7.95951 6.29617 8.52357 6.86023 8.52357 7.54964V57.6883C8.52357 58.3777 7.95951 58.9418 7.2701 58.9418Z" fill="white"/>
</svg>
