<svg width="25" height="25" viewBox="0 0 25 25" fill="none" xmlns="http://www.w3.org/2000/svg">
<path fill-rule="evenodd" clip-rule="evenodd" d="M12.5 3.64581C7.6177 3.64581 3.64583 7.61769 3.64583 12.5C3.64583 17.3823 7.6177 21.3541 12.5 21.3541C17.3823 21.3541 21.3542 17.3823 21.3542 12.5C21.3542 7.61769 17.3823 3.64581 12.5 3.64581ZM12.5 22.9166C6.75625 22.9166 2.08333 18.2437 2.08333 12.5C2.08333 6.75623 6.75625 2.08331 12.5 2.08331C18.2437 2.08331 22.9167 6.75623 22.9167 12.5C22.9167 18.2437 18.2437 22.9166 12.5 22.9166Z" fill="#C4C4C4"/>
<path fill-rule="evenodd" clip-rule="evenodd" d="M10.0026 15.7674C9.80264 15.7674 9.60264 15.6914 9.45056 15.5382C9.14535 15.233 9.14535 14.7393 9.45056 14.4341L14.4422 9.44241C14.7474 9.1372 15.2412 9.1372 15.5464 9.44241C15.8516 9.74762 15.8516 10.2414 15.5464 10.5466L10.5547 15.5382C10.4026 15.6914 10.2026 15.7674 10.0026 15.7674Z" fill="#CFCFCF"/>
<path fill-rule="evenodd" clip-rule="evenodd" d="M14.9964 15.7704C14.7964 15.7704 14.5964 15.6944 14.4444 15.5413L9.44853 10.5444C9.14332 10.2392 9.14332 9.74542 9.44853 9.44021C9.75478 9.135 10.2485 9.135 10.5527 9.44021L15.5485 14.4371C15.8537 14.7423 15.8537 15.236 15.5485 15.5413C15.3964 15.6944 15.1954 15.7704 14.9964 15.7704Z" fill="#CFCFCF"/>
</svg>
