<svg width="144" height="15" viewBox="0 0 144 15" fill="none" xmlns="http://www.w3.org/2000/svg">
<g clip-path="url(#clip0)">
<path d="M7.065 0H0V15H10.5V4.08L7.065 0ZM9 13.5H1.5V1.5H6.375L9 4.635V13.5Z" fill="white"/>
<path d="M68.31 1.5V10.365L70.95 13.5H78.81L77.31 15H70.245L66.81 10.92V0H77.31V1.5H68.31Z" fill="white"/>
<path d="M90.81 13.5V15H83.745L80.31 10.92V0H81.81V10.365L84.45 13.5H90.81Z" fill="white"/>
<path d="M93.81 1.5V15H95.31V0L93.81 1.5Z" fill="white"/>
<path d="M20.565 0H13.5V15H15V8.91H22.5V13.5L24 15V4.08L20.565 0ZM22.5 7.41H15V1.5H19.875L22.5 4.635V7.41Z" fill="white"/>
<path d="M99.825 1.5V10.365L102.45 13.5H108.825L108.81 15H101.745L98.325 10.92V0H108.825V1.5H99.825Z" fill="white"/>
<path d="M108.81 7.59009L108.825 6.09009H101.31V7.59009H108.81Z" fill="white"/>
<path d="M142.905 0.93C142.755 0.63 142.53 0.39 142.23 0.24C141.93 0.075 141.57 0 141.15 0C140.73 0 140.37 0.075 140.07 0.24C139.77 0.405 139.545 0.63 139.395 0.93C139.245 1.23 139.155 1.605 139.155 2.025C139.155 2.445 139.23 2.82 139.395 3.12C139.545 3.42 139.77 3.66 140.07 3.81C140.37 3.975 140.73 4.05 141.15 4.05C141.57 4.05 141.93 3.975 142.23 3.81C142.53 3.645 142.755 3.42 142.905 3.12C143.055 2.82 143.145 2.445 143.145 2.025C143.145 1.605 143.07 1.23 142.905 0.93ZM142.425 2.82C142.305 3.045 142.14 3.21 141.93 3.33C141.72 3.45 141.45 3.51 141.15 3.51C140.85 3.51 140.58 3.45 140.37 3.33C140.16 3.21 139.98 3.045 139.875 2.82C139.755 2.595 139.71 2.325 139.71 2.01C139.71 1.695 139.77 1.41 139.875 1.185C139.995 0.96 140.16 0.78 140.37 0.66C140.58 0.54 140.85 0.48 141.15 0.48C141.45 0.48 141.72 0.54 141.93 0.66C142.155 0.78 142.32 0.945 142.425 1.185C142.53 1.425 142.59 1.68 142.59 2.01C142.605 2.34 142.545 2.61 142.425 2.82Z" fill="white"/>
<path d="M141.84 2.23499C141.975 2.09999 142.035 1.93499 142.035 1.70999C142.035 1.49999 141.975 1.31999 141.84 1.18499C141.705 1.04999 141.525 0.98999 141.285 0.98999H140.865H140.685H140.37V3.02999H140.865V2.41499H141.24L141.54 3.02999H142.095L141.72 2.30999C141.765 2.29499 141.81 2.26499 141.84 2.23499ZM140.865 1.43999H141.3C141.375 1.43999 141.435 1.46999 141.48 1.51499C141.525 1.55999 141.54 1.63499 141.54 1.70999C141.54 1.79999 141.525 1.85999 141.48 1.91999C141.435 1.96499 141.375 1.99499 141.3 1.99499H140.865V1.43999Z" fill="white"/>
<path d="M56.205 4.635L53.01 8.28L56.31 15H54.645L51.645 8.91H43.86V15H42.36V0L43.86 1.5V7.41H51.765L56.205 2.355V4.635Z" fill="white"/>
<path d="M121.59 0V15H120.09V10.965L113.31 2.82V15H111.81V0H113.13L120.09 8.61V0H121.59Z" fill="white"/>
<path d="M136.155 2.655L135 3.615L133.23 1.5H130.215V15H128.715V1.5H124.59L123.09 0H133.935L136.155 2.655Z" fill="white"/>
<path d="M39.36 15H37.8L36.18 8.91H28.5V15H27V3.615H28.5V7.41H36V4.635L33.375 1.5H27V0H34.065L37.5 4.08V8.07L39.36 15Z" fill="white"/>
</g>
<defs>
<clipPath id="clip0">
<rect width="143.145" height="15" fill="white"/>
</clipPath>
</defs>
</svg>
