<svg width="67" height="20" viewBox="0 0 67 20" fill="none" xmlns="http://www.w3.org/2000/svg">
<g clip-path="url(#clip0)">
<path d="M64.6041 2.32638L64.6122 2.97127C64.6122 3.00393 64.5959 3.02025 64.5633 3.02025H64.3673C64.3347 3.02025 64.3184 3.00393 64.3184 2.97127L64.3265 1.3876C64.3265 1.35495 64.3428 1.33862 64.3755 1.33862H65.0367C65.3796 1.33862 65.6 1.5427 65.6 1.82025C65.6 2.05699 65.4449 2.25291 65.1755 2.30189L65.6408 2.95495C65.6653 2.9876 65.649 3.01209 65.6082 3.01209H65.3714C65.347 3.01209 65.3306 3.00393 65.3143 2.97944L64.8735 2.31821H64.6041V2.32638ZM64.9959 2.08964C65.2245 2.08964 65.3225 1.99985 65.3225 1.85291C65.3225 1.68964 65.2 1.59168 64.9959 1.59168H64.5959L64.6041 2.09781H64.9959V2.08964Z" fill="white"/>
<path d="M64.9143 3.75502C64.0082 3.75502 63.2735 3.02033 63.2735 2.1142C63.2735 1.20808 64.0082 0.473389 64.9143 0.473389C65.8204 0.473389 66.5551 1.20808 66.5551 2.1142C66.5551 3.02033 65.8204 3.75502 64.9143 3.75502ZM64.9143 0.718287C64.1469 0.718287 63.5184 1.34686 63.5184 2.1142C63.5184 2.88155 64.1388 3.51012 64.9143 3.51012C65.6898 3.51012 66.3102 2.88155 66.3102 2.1142C66.3102 1.34686 65.6816 0.718287 64.9143 0.718287Z" fill="white"/>
<path d="M66.3265 9.25697C66.2122 6.99575 63.5592 4.9631 57.7469 5.97534C54.0816 6.66922 53.3388 10.1631 54.7184 15.7713C55.151 17.3876 56.4735 18.5549 58.1388 19.0692C61.6163 20.1549 65.2653 17.9835 66.1224 14.4488C66.5061 12.8651 66.7591 10.9223 66.3265 9.25697ZM64.8408 14.6202C64.6857 16.4162 63.0367 17.706 61.2571 17.4202C56.7592 16.7019 56.1877 13.4039 56.5306 8.43248C58.0735 8.13861 60.4408 8.06514 62.8898 8.35085C63.9592 8.45697 64.5224 9.21616 64.5959 10.0162C64.5959 10.0162 64.5959 10.0162 64.5959 10.0243C64.6122 10.0978 64.7836 11.0447 64.8571 12.3019C64.8979 13.0039 64.9061 13.8121 64.8408 14.6202Z" fill="white"/>
<path d="M42.5061 7.80403L42.4734 7.7224C41.3061 4.70199 38.5632 5.77138 39.0775 7.50199C39.1428 7.73056 39.2816 7.93465 39.4448 8.11424C40.2938 8.99587 40.6204 10.3918 40.653 11.9265C40.6775 14.204 40.0897 16.702 39.3959 18.4163C39.3959 18.4163 39.4448 18.4326 39.5183 18.4571C39.9673 18.5714 40.3591 18.6122 40.702 18.5959C41.7877 18.5387 42.3673 17.8612 42.6857 16.9224C43.1836 15.453 43.0367 13.3469 43.2653 11.9265C43.3551 11.151 43.5265 10.4163 43.853 9.73056C44.5142 8.35097 45.8857 7.42852 47.4204 7.34689C47.4367 7.34689 47.453 7.34689 47.4612 7.34689C48.6204 7.28975 49.6653 8.03261 50.0326 9.13465C51.0122 12.0897 49.7469 17.5102 49.502 20C52.498 20.2285 51.7714 16.9877 52.449 10.8979C53.1347 4.6775 46.0898 3.29791 42.5061 7.80403Z" fill="white"/>
<path d="M47.2326 2.29385L45.6816 2.85712C45.102 3.06936 44.4571 2.76732 44.2449 2.18773L44.2204 2.11426L43.1265 2.51426L43.151 2.58773C43.4857 3.51834 44.3673 4.08977 45.298 4.08977C45.5592 4.08977 45.8204 4.04895 46.0735 3.95099L47.6653 3.3714C48.2449 3.15916 48.8898 3.4612 49.102 4.04079L50.1959 3.64079C49.9673 3.00405 49.4775 2.51426 48.8326 2.27752C48.3265 2.0816 47.7551 2.09793 47.2326 2.29385Z" fill="white"/>
<path d="M35.0122 6.36743L35.4204 8.51437C35.8367 11.0205 35.8041 14.098 35.6245 17.347C35.6245 17.347 37.0449 19.3307 37.1184 19.347C38.0898 16.2205 38.547 11.8776 36.9306 8.50621C36.5469 7.58376 35.8286 6.8409 35.0122 6.36743Z" fill="white"/>
<path d="M35.015 2.76493L33.4276 4.35229L35.015 5.93966L36.6023 4.35229L35.015 2.76493Z" fill="white"/>
<path d="M24.049 7.80416L24.0163 7.72253C22.849 4.70212 20.1061 5.77151 20.6204 7.50212C20.6857 7.73069 20.8245 7.93477 20.9877 8.11436C21.8367 8.996 22.1633 10.3919 22.1959 11.9266C22.2204 14.2042 21.6326 16.7021 20.9388 18.4164C20.9388 18.4164 20.9877 18.4327 21.0612 18.4572C21.5102 18.5715 21.902 18.6123 22.2449 18.596C23.3306 18.5389 23.9102 17.8613 24.2286 16.9225C24.7265 15.4531 24.5796 13.347 24.8082 11.9266C24.898 11.1511 25.0694 10.4164 25.3959 9.73069C26.0571 8.3511 27.4286 7.42865 28.9633 7.34702C28.9796 7.34702 28.9959 7.34702 29.0041 7.34702C30.1633 7.28987 31.2082 8.03273 31.5755 9.13477C32.5551 12.0899 31.2898 17.5103 31.0449 20.0001C34.0408 20.2286 33.3143 16.9878 33.9918 10.898C34.6776 4.67763 27.6327 3.3062 24.049 7.80416Z" fill="white"/>
<path d="M14.4816 18.5959C14.5632 18.5796 15.9755 16.5959 15.9755 16.5959C15.9102 15.3224 15.8612 14.0816 15.853 12.8898C15.8694 8.63673 17.3306 3.19184 13.6816 0C13.4775 1.25714 13.6734 2.53061 13.8285 3.63265C14.351 8.38367 12.7755 14.0898 14.4816 18.5959Z" fill="white"/>
<path d="M11.0449 16.7101C2.9959 17.3795 2.03264 13.7876 2.44897 7.64884C3.99182 7.35497 6.35917 7.2815 8.80815 7.56721C11.1347 7.79578 11.0775 11.1264 8.74284 11.2162C7.15101 11.2407 5.82039 11.0611 4.75101 10.6774C4.13876 11.0937 3.53468 12.9223 4.7755 13.0448C14.2286 13.9346 15.6326 3.11007 3.66529 5.19987C-1.40136e-05 5.89374 -0.742871 9.38762 0.636721 14.9958C1.6408 18.6937 7.26529 19.9999 11.0449 16.7101Z" fill="white"/>
</g>
<defs>
<clipPath id="clip0">
<rect width="66.5551" height="20" fill="white"/>
</clipPath>
</defs>
</svg>
