<svg width="30" height="30" viewBox="0 0 30 30" fill="none" xmlns="http://www.w3.org/2000/svg">
<rect width="30" height="30" rx="5" fill="#545454"/>
<g clip-path="url(#clip0)">
<path d="M15.0004 5.00039C9.46732 5.00039 5.00041 9.46731 5.00041 15.0004C4.94527 21.0114 10.4232 25.7725 16.3791 24.9085C16.3975 24.9085 16.4342 24.8901 16.4526 24.8901C18.0335 24.4673 17.6291 22.1879 16.0298 22.3166C15.9931 22.3166 15.9563 22.3166 15.9195 22.335C11.5629 22.9048 7.59232 19.4122 7.62909 15.0188C7.77615 6.69157 19.0813 4.83495 21.9489 12.5188C22.3901 13.732 22.5004 15.1842 22.2247 16.4526C21.857 18.0335 19.5592 17.5923 19.7982 15.993V15.9747C20.4232 13.0151 18.0886 10.0555 14.982 10.0923C12.2798 10.0923 10.0739 12.2982 10.0739 15.0004C10.0556 19.1916 15.0739 21.4526 18.1989 18.7136C18.732 19.3203 19.4673 19.7798 20.3129 19.9453C20.3497 19.9453 20.4048 19.9636 20.4416 19.9636C22.3901 20.2945 24.2651 19.0629 24.7614 17.1511C24.7798 17.0408 24.8166 16.9122 24.835 16.7835V16.7651C25.9747 10.7173 21.1585 4.94524 15.0004 5.00039ZM17.3901 15.221C17.3901 15.2394 17.3901 15.2394 17.3901 15.221C17.2798 16.4342 16.2504 17.4085 14.982 17.4085C11.8019 17.2798 11.8019 12.721 15.0004 12.5923C16.4159 12.5739 17.5372 13.8239 17.3901 15.221Z" fill="#B9BBBE"/>
</g>
<defs>
<clipPath id="clip0">
<rect width="20" height="20" fill="white" transform="translate(5 5)"/>
</clipPath>
</defs>
</svg>
