<svg id="Layer_1" data-name="Layer 1" xmlns="http://www.w3.org/2000/svg" viewBox="0 0 256 256"><defs><style>.cls-1{fill:#ee2737;}.cls-2{fill:#ffd100;}</style></defs><path class="cls-1" d="M189.71,44.2V19.15a5.35,5.35,0,0,0-5.35-5.34h-47A5.35,5.35,0,0,0,132,19.15V44.2H86.53a5.35,5.35,0,0,0-5.35,5.35V77.36a5.34,5.34,0,0,0,5.35,5.35H233a5.34,5.34,0,0,0,5.34-5.35V49.55A5.35,5.35,0,0,0,233,44.2Z"/><path class="cls-2" d="M249.58,121.22H223.91a6.41,6.41,0,0,0-6.42,6.42v89.85H179V166.15a6.41,6.41,0,0,0-6.42-6.42H146.89a6.42,6.42,0,0,0-6.42,6.42v51.34h-6.41A32.09,32.09,0,0,1,102,185.4V127.64a6.42,6.42,0,0,0-6.42-6.42H69.87a6.41,6.41,0,0,0-6.41,6.42v64.18a64.06,64.06,0,0,0,5.35,25.67H0V256l69.64-.05a6.41,6.41,0,0,0,4.53-1.88L83,245.24A54.33,54.33,0,0,0,108.28,256l38.1-.06a6.41,6.41,0,0,0,4.53-1.88l8.82-8.82A54.49,54.49,0,0,0,185,256h71V127.64A6.41,6.41,0,0,0,249.58,121.22Z"/></svg>