<svg width="20" height="19" viewBox="0 0 20 19" fill="none" xmlns="http://www.w3.org/2000/svg">
<path d="M15.4955 0.323889C13.6438 -0.260846 11.5972 0.0317118 10.0379 1.00627C8.3812 -0.0657441 6.33461 -0.260846 4.48295 0.323889C1.46181 1.29845 0 4.12486 0 6.85362C0 7.73073 0.0974797 8.51037 0.389847 9.29002C2.14405 14.7476 9.35579 18.7431 9.64816 18.8405C9.74561 18.938 9.84303 18.9381 10.0379 18.9381C10.1354 18.9381 10.2329 18.938 10.4278 18.8405C10.7202 18.6456 17.9319 14.6501 19.6861 9.29002C20.6607 5.87907 19.3937 1.59082 15.4955 0.323889ZM15.0082 6.75607C14.9108 5.97643 14.4235 5.29419 13.6438 5.00182C13.254 4.90436 13.0591 4.41718 13.1565 4.12481C13.254 3.73499 13.6438 3.54008 14.0337 3.63753C15.3981 4.02736 16.2751 5.19668 16.3726 6.65852C16.3726 7.04835 16.0802 7.43822 15.6904 7.43822H15.5929C15.398 7.43822 15.0082 7.1459 15.0082 6.75607Z" fill="#EE2737"/>
</svg>
