<svg viewBox="0 0 138 45" fill="none" xmlns="http://www.w3.org/2000/svg">
<path d="M72.6119 7.5127H69.7374C69.3436 7.5127 69.0286 7.82771 69.0286 8.22149V29.0128H60.4443V11.8048H43.2363V26.1382C43.2363 30.1154 46.4259 33.3049 50.403 33.3049H56.1521V37.0064C56.1521 38.9753 54.5377 40.5898 52.5688 40.5898H50.403C50.0092 40.5898 49.6942 40.9048 49.6942 41.2986V44.1731C49.6942 44.5669 50.0092 44.8819 50.403 44.8819H53.2776C57.2547 44.8819 60.4443 41.6923 60.4443 37.7152V33.3049H73.3601V8.22149C73.3207 7.82771 73.0057 7.5127 72.6119 7.5127ZM56.1128 29.0128H51.1118C49.1429 29.0128 47.5285 27.3983 47.5285 25.4294V16.097H56.1128V29.0128Z" fill="#FFD100"/>
<path d="M31.7776 11.8042H25.9497C25.871 11.8042 25.871 11.7255 25.9104 11.6861L36.2666 7.59084C36.5029 7.47271 36.6604 7.23645 36.6604 6.9608V4.28314C36.6604 3.73185 36.1091 3.41683 35.6366 3.6531L24.9259 7.90586C22.9177 8.92968 21.6182 10.9773 21.6182 13.2612V16.1357H31.0688C33.0377 16.1357 34.6522 17.7502 34.6522 19.7191V29.0516H17.2079V11.8042H0V26.1376C0 30.1147 3.18957 33.3043 7.1667 33.3043H12.9158V37.1239C12.9158 39.0928 11.3013 40.7073 9.33246 40.7073H7.1667C6.77292 40.7073 6.4579 41.0223 6.4579 41.4161V44.2906C6.4579 44.6844 6.77292 44.9994 7.1667 44.9994H10.0412C14.0184 44.9994 17.2079 41.8098 17.2079 37.8327V33.3043H38.9443V18.9709C38.9443 15.0332 35.7153 11.8042 31.7776 11.8042ZM12.9158 29.0122H7.87549C5.90662 29.0122 4.29214 27.3977 4.29214 25.4288V16.0964H12.8764V29.0122H12.9158Z" fill="#FFD100"/>
<path d="M25.2413 3.9687L36.0307 0.0309523C36.3457 -0.0871801 36.6607 0.149085 36.6607 0.464104V1.60605C36.6607 1.80294 36.5426 1.99982 36.3457 2.0392L25.5563 5.97695C25.2413 6.09508 24.9263 5.85881 24.9263 5.5438V4.40185C24.9263 4.20496 25.0444 4.00807 25.2413 3.9687Z" fill="#EE2737"/>
<path d="M130.418 9.67845V6.88265C130.418 6.56763 130.143 6.29199 129.828 6.29199H124.59C124.275 6.29199 124 6.56763 124 6.88265V9.67845H118.92C118.605 9.67845 118.329 9.9541 118.329 10.2691V13.3799C118.329 13.695 118.605 13.9706 118.92 13.9706H135.262C135.577 13.9706 135.852 13.695 135.852 13.3799V10.2691C135.852 9.9541 135.577 9.67845 135.262 9.67845H130.418Z" fill="#EE2737"/>
<path d="M137.112 18.2626H134.237C133.844 18.2626 133.529 18.5776 133.529 18.9714V29.0126H129.237V23.2635C129.237 22.8698 128.922 22.5547 128.528 22.5547H125.653C125.259 22.5547 124.944 22.8698 124.944 23.2635V29.0126H124.236C122.267 29.0126 120.652 27.3982 120.652 25.4293V18.9714C120.652 18.5776 120.337 18.2626 119.943 18.2626H117.069C116.675 18.2626 116.36 18.5776 116.36 18.9714V26.1381C116.36 27.1619 116.557 28.1069 116.951 29.0126H107.736V11.8047H98.6403C95.3326 11.8047 92.6549 14.4824 92.6549 17.7901V29.0126H84.0706V16.8056C84.0706 16.4118 83.7556 16.0968 83.3618 16.0968H80.4873C80.0935 16.0968 79.7785 16.4118 79.7785 16.8056V37.085C79.7785 39.0539 78.164 40.6684 76.1951 40.6684H73.9112C73.5962 40.6684 73.3206 40.944 73.3206 41.259V44.3698C73.3206 44.6849 73.5962 44.9605 73.9112 44.9605H76.9039C80.881 44.9605 84.0706 41.7709 84.0706 37.7938V33.3048H92.6549V44.9999H101.751C105.059 44.9999 107.736 42.3222 107.736 39.0145V33.3048H117.03C117.226 33.3048 117.384 33.226 117.541 33.1079L118.526 32.1234C119.313 32.7535 120.298 33.1866 121.361 33.3442H125.614C125.811 33.3442 125.968 33.2654 126.126 33.1473L127.11 32.1628C127.937 32.7929 128.882 33.226 129.945 33.3835H137.821V18.9714C137.821 18.5776 137.506 18.2626 137.112 18.2626ZM103.444 37.715C103.444 39.3689 102.105 40.7077 100.452 40.7077H96.9864V33.3048H103.444V37.715ZM103.444 29.0126H96.9864V19.0895C96.9864 17.4357 98.3252 16.0968 99.9791 16.0968H103.444V29.0126Z" fill="#FFD100"/>
</svg>
