<svg width="30" height="30" viewBox="0 0 30 30" fill="none" xmlns="http://www.w3.org/2000/svg">
<rect width="30" height="30" rx="5" fill="#545454"/>
<path d="M7.17848 14.4575C11.7802 12.3406 14.8488 10.9451 16.3841 10.2708C20.7679 8.34569 21.6788 8.01127 22.2725 8.00011C22.4031 7.9978 22.6951 8.03196 22.8842 8.194C23.0439 8.33081 23.0878 8.51563 23.1088 8.64535C23.1299 8.77506 23.156 9.07056 23.1352 9.30145C22.8977 11.9368 21.8698 18.3322 21.3468 21.2839C21.1256 22.5328 20.6899 22.9516 20.2681 22.9926C19.3514 23.0816 18.6553 22.3529 17.7674 21.7385C16.3781 20.7769 15.5932 20.1783 14.2447 19.24C12.6862 18.1557 13.6965 17.5597 14.5847 16.5857C14.8171 16.3308 18.856 12.452 18.9342 12.1001C18.944 12.0561 18.9531 11.892 18.8608 11.8054C18.7685 11.7188 18.6322 11.7484 18.5339 11.772C18.3946 11.8054 16.1751 13.3542 11.8756 16.4186C11.2456 16.8753 10.675 17.0979 10.1637 17.0862C9.60012 17.0734 8.51595 16.7497 7.70998 16.4731C6.72142 16.1338 5.93574 15.9545 6.00415 15.3783C6.03979 15.0781 6.43123 14.7712 7.17848 14.4575Z" fill="#B9BBBE"/>
</svg>
