<svg width="828" height="90" viewBox="0 0 828 90" fill="none" xmlns="http://www.w3.org/2000/svg">
<path d="M174.479 15.0253H168.729C167.942 15.0253 167.312 15.6554 167.312 16.4429V58.0255H150.143V23.6096H115.727V52.2764C115.727 60.2307 122.107 66.6098 130.061 66.6098H141.559V74.0128C141.559 77.9505 138.33 81.1795 134.392 81.1795H130.061C129.273 81.1795 128.643 81.8095 128.643 82.5971V88.3462C128.643 89.1337 129.273 89.7637 130.061 89.7637H135.81C143.764 89.7637 150.143 83.3846 150.143 75.4304V66.6098H175.975V16.4429C175.896 15.6554 175.266 15.0253 174.479 15.0253ZM141.48 58.0255H131.478C127.541 58.0255 124.312 54.7966 124.312 50.8588V32.1939H141.48V58.0255Z" fill="#FFD100"/>
<path d="M92.8098 23.6085H81.1541C80.9966 23.6085 80.9966 23.451 81.0753 23.3722L101.788 15.1817C102.26 14.9455 102.575 14.4729 102.575 13.9217V8.56632C102.575 7.46375 101.473 6.83371 100.528 7.30624L79.1065 15.8118C75.09 17.8594 72.4911 21.9547 72.4911 26.5224V32.2715H91.3922C95.33 32.2715 98.5589 35.5005 98.5589 39.4382V58.1032H63.6705V23.6085H29.2546V52.2753C29.2546 60.2295 35.6338 66.6087 43.588 66.6087H55.0862V74.2479C55.0862 78.1857 51.8573 81.4146 47.9195 81.4146H43.588C42.8005 81.4146 42.1704 82.0446 42.1704 82.8322V88.5813C42.1704 89.3689 42.8005 89.9989 43.588 89.9989H49.3371C57.2914 89.9989 63.6705 83.6197 63.6705 75.6655V66.6087H107.143V37.9419C107.143 30.0664 100.685 23.6085 92.8098 23.6085ZM55.0862 58.0244H45.0056C41.0678 58.0244 37.8389 54.7954 37.8389 50.8577V32.1928H55.0075V58.0244H55.0862Z" fill="#FFD100"/>
<path d="M79.737 7.93739L101.316 0.0619046C101.946 -0.17436 102.576 0.298169 102.576 0.928208V3.2121C102.576 3.60588 102.34 3.99965 101.946 4.0784L80.3671 11.9539C79.737 12.1902 79.107 11.7176 79.107 11.0876V8.8037C79.107 8.40992 79.3433 8.01615 79.737 7.93739Z" fill="#EE2737"/>
<path d="M290.091 19.3569V13.7653C290.091 13.1352 289.54 12.584 288.91 12.584H278.436C277.806 12.584 277.254 13.1352 277.254 13.7653V19.3569H267.095C266.465 19.3569 265.914 19.9082 265.914 20.5382V26.7598C265.914 27.3899 266.465 27.9412 267.095 27.9412H299.778C300.408 27.9412 300.96 27.3899 300.96 26.7598V20.5382C300.96 19.9082 300.408 19.3569 299.778 19.3569H290.091Z" fill="#EE2737"/>
<path d="M303.479 36.5254H297.729C296.942 36.5254 296.312 37.1555 296.312 37.943V58.0255H287.728V46.5273C287.728 45.7397 287.097 45.1097 286.31 45.1097H280.561C279.773 45.1097 279.143 45.7397 279.143 46.5273V58.0255H277.726C273.788 58.0255 270.559 54.7966 270.559 50.8588V37.943C270.559 37.1555 269.929 36.5254 269.141 36.5254H263.392C262.605 36.5254 261.975 37.1555 261.975 37.943V52.2764C261.975 54.324 262.368 56.2141 263.156 58.0255H244.727V23.6096H226.535C219.92 23.6096 214.564 28.965 214.564 35.5804V58.0255H197.396V33.6115C197.396 32.8239 196.766 32.1939 195.978 32.1939H190.229C189.441 32.1939 188.811 32.8239 188.811 33.6115V74.1703C188.811 78.108 185.582 81.337 181.645 81.337H177.077C176.447 81.337 175.896 81.8882 175.896 82.5183V88.7399C175.896 89.37 176.447 89.9212 177.077 89.9212H183.062C191.016 89.9212 197.396 83.5421 197.396 75.5878V66.6098H214.564V90H232.757C239.372 90 244.727 84.6447 244.727 78.0293V66.6098H263.314C263.707 66.6098 264.022 66.4523 264.337 66.216L266.306 64.2471C267.881 65.5072 269.85 66.3735 271.977 66.6885H280.482C280.876 66.6885 281.191 66.531 281.506 66.2948L283.475 64.3259C285.129 65.586 287.019 66.4523 289.145 66.7673H304.896V37.943C304.896 37.1555 304.266 36.5254 303.479 36.5254ZM236.143 75.4303C236.143 78.738 233.465 81.4157 230.158 81.4157H223.227V66.6098H236.143V75.4303ZM236.143 58.0255H223.227V38.1793C223.227 34.8716 225.905 32.1939 229.213 32.1939H236.143V58.0255Z" fill="#FFD100"/>
<path fill-rule="evenodd" clip-rule="evenodd" d="M663.679 50.75H647.233H645.73H642.018V46.6391C642.018 44.5031 641.782 42.5282 641.312 40.7146C640.841 38.8808 640.095 37.299 639.072 35.969C638.07 34.639 636.771 33.6012 635.175 32.8556C633.6 32.0899 631.698 31.707 629.469 31.707C627.669 31.707 625.991 32.0395 624.437 32.7045C622.882 33.3493 621.491 34.2763 620.264 35.4854C619.835 35.9488 619.385 36.4929 618.914 37.1176C618.444 37.7221 618.014 38.4375 617.625 39.2637C617.257 40.0899 616.951 41.0471 616.705 42.1353C616.46 43.2033 616.337 44.4325 616.337 45.823C616.337 47.4351 616.521 48.8658 616.889 50.1152C617.278 51.3646 617.789 52.4528 618.423 53.3797C619.078 54.2865 619.835 55.0523 620.694 55.677C621.573 56.3017 622.504 56.8155 623.486 57.2185C624.468 57.6014 625.49 57.8735 626.554 58.0347C627.618 58.1959 628.661 58.2765 629.683 58.2765H634.408C634.327 59.808 634.061 61.0272 633.611 61.934C633.181 62.8408 632.537 63.6368 631.678 64.3219C631.125 64.7854 630.471 65.1783 629.714 65.5008C628.978 65.8433 628.108 66.1154 627.106 66.3169C626.124 66.5385 624.989 66.6997 623.701 66.8005C622.432 66.9214 620.98 66.9819 619.344 66.9819V74.5084C621.471 74.5084 623.373 74.4177 625.05 74.2363C626.748 74.0751 628.282 73.8132 629.653 73.4504C631.023 73.0877 632.261 72.6343 633.365 72.0902C634.47 71.5663 635.493 70.9416 636.433 70.2162C638.233 68.8056 639.583 67.1532 640.483 65.2589C641.404 63.3647 641.905 61.0372 641.987 58.2765H645.73H647.233H663.157C665.121 58.2765 666.788 58.075 668.158 57.672C669.549 57.2689 670.695 56.7752 671.595 56.1908C672.515 55.6064 673.231 54.9717 673.743 54.2865C674.254 53.6014 674.632 52.9868 674.878 52.4427C675.062 52.0195 675.225 51.5057 675.369 50.9011C675.532 50.2966 675.614 49.5913 675.614 48.7852C675.614 48.1404 675.543 47.425 675.399 46.6391C675.256 45.8532 675.011 45.0371 674.663 44.1907C674.274 43.2235 673.732 42.1957 673.037 41.1076C672.341 40.0194 671.544 38.9111 670.644 37.7826C669.764 36.634 668.813 35.4954 667.79 34.367C666.788 33.2183 665.776 32.1201 664.753 31.0722C663.73 30.0042 662.728 28.9966 661.746 28.0495C660.785 27.1024 659.915 26.256 659.138 25.5104L681.597 15.7471L678.805 9.15765L652.112 21.188L651.498 28.0193C652.173 28.5029 653.073 29.2284 654.198 30.1956C655.323 31.1629 656.52 32.2813 657.788 33.5508C659.077 34.8002 660.365 36.1403 661.654 37.571C662.963 38.9816 664.139 40.3821 665.182 41.7726C666.226 43.163 667.074 44.4728 667.729 45.7021C668.404 46.9313 668.741 47.9792 668.741 48.8457C668.741 49.289 668.537 49.6417 668.128 49.9036C667.739 50.1454 667.269 50.3369 666.716 50.4779C666.164 50.5988 665.602 50.6795 665.029 50.7198C664.456 50.7399 664.006 50.75 663.679 50.75ZM675.921 2.20544L652.541 12.2106L652.143 16.5028L677.516 5.59086L675.921 2.20544ZM488.155 46.2462C488.053 46.3066 487.726 46.5283 487.174 46.9112C486.621 47.2739 485.875 47.7474 484.934 48.3318C485.138 48.9364 485.455 49.4099 485.885 49.7525C486.314 50.0749 486.754 50.3167 487.204 50.4779C487.654 50.619 488.074 50.6996 488.462 50.7198C488.871 50.7399 489.158 50.75 489.321 50.75H493.657H494.936H502.033C502.279 50.75 502.627 50.7197 503.077 50.6593C503.547 50.5787 504.007 50.3873 504.457 50.085C504.928 49.7827 505.337 49.3293 505.685 48.7248C506.032 48.1001 506.206 47.2537 506.206 46.1857C506.206 45.7424 506.165 45.2084 506.083 44.5837C506.022 43.9388 505.93 43.2537 505.807 42.5282C505.685 41.8028 505.541 41.0673 505.378 40.3217C505.235 39.5559 505.091 38.8405 504.948 38.1756C504.805 37.4904 504.662 36.8758 504.519 36.3317C504.375 35.7675 504.263 35.3342 504.181 35.0319L511.391 32.8858C511.432 33.0269 511.514 33.3594 511.637 33.8833C511.78 34.4073 511.933 35.0521 512.097 35.8178C512.261 36.5634 512.424 37.3997 512.588 38.3267C512.772 39.2536 512.936 40.1907 513.079 41.1378C513.242 42.0648 513.365 42.9716 513.447 43.8582C513.549 44.7449 513.6 45.5207 513.6 46.1857C513.6 48.2613 513.253 50.0648 512.557 51.5963C511.862 53.1077 510.952 54.3571 509.827 55.3445C508.702 56.3319 507.433 57.0674 506.022 57.5511C504.631 58.0347 503.23 58.2765 501.819 58.2765H494.936H493.657H489.321C486.887 58.2563 484.699 57.7324 482.755 56.7047C480.833 55.6568 479.329 54.0951 478.245 52.0195C476.67 52.7853 474.972 53.551 473.152 54.3168C471.332 55.0624 469.429 55.7274 467.445 56.3117C465.461 56.8961 463.426 57.3697 461.339 57.7324C459.253 58.0951 457.167 58.2765 455.08 58.2765H447.502H445.937H442.255C442.174 61.0372 441.672 63.3647 440.752 65.2589C439.852 67.1532 438.502 68.8056 436.702 70.2162C435.761 70.9416 434.738 71.5663 433.634 72.0902C432.529 72.6343 431.292 73.0877 429.921 73.4504C428.551 73.8132 427.017 74.0751 425.319 74.2363C423.642 74.4177 421.739 74.5084 419.612 74.5084V66.9819C421.249 66.9819 422.701 66.9214 423.969 66.8005C425.258 66.6997 426.393 66.5385 427.375 66.3169C428.377 66.1154 429.246 65.8433 429.983 65.5008C430.739 65.1783 431.394 64.7854 431.946 64.3219C432.805 63.6368 433.45 62.8408 433.879 61.934C434.329 61.0272 434.595 59.808 434.677 58.2765H429.952C428.929 58.2765 427.886 58.1959 426.822 58.0347C425.759 57.8735 424.736 57.6014 423.754 57.2185C422.772 56.8155 421.842 56.3017 420.962 55.677C420.103 55.0523 419.346 54.2865 418.692 53.3797C418.058 52.4528 417.546 51.3646 417.158 50.1152C416.789 48.8658 416.605 47.4351 416.605 45.823C416.605 44.4325 416.728 43.2033 416.974 42.1353C417.219 41.0471 417.526 40.0899 417.894 39.2637C418.283 38.4375 418.712 37.7221 419.183 37.1176C419.653 36.4929 420.103 35.9488 420.533 35.4854C421.76 34.2763 423.151 33.3493 424.705 32.7045C426.26 32.0395 427.937 31.707 429.737 31.707C431.967 31.707 433.869 32.0899 435.444 32.8556C437.039 33.6012 438.338 34.639 439.341 35.969C440.363 37.299 441.11 38.8808 441.58 40.7146C442.051 42.5282 442.286 44.5031 442.286 46.6391V50.75H445.937H447.502H455.08C457.085 50.75 459.222 50.5485 461.493 50.1454C463.763 49.7424 466.003 49.2286 468.212 48.6039C470.421 47.959 472.518 47.2436 474.502 46.4577C476.507 45.6718 478.245 44.896 479.718 44.1303C478.797 43.8481 477.785 43.5459 476.68 43.2235C475.576 42.8809 474.451 42.5484 473.305 42.226C472.16 41.8834 471.025 41.561 469.9 41.2587C468.775 40.9363 467.721 40.6542 466.739 40.4123C465.758 40.1705 464.878 39.9791 464.101 39.838C463.324 39.697 462.71 39.6264 462.26 39.6264C461.789 39.6264 461.37 39.6869 461.002 39.8078C460.654 39.9086 460.337 40.0899 460.051 40.3519C459.764 40.5937 459.499 40.9161 459.253 41.3192C459.008 41.7222 458.752 42.2058 458.486 42.7701L451.46 40.6844C451.849 39.4753 452.319 38.3468 452.871 37.299C453.444 36.2309 454.129 35.304 454.927 34.5181C455.745 33.7322 456.686 33.1176 457.75 32.6742C458.813 32.2108 460.03 31.979 461.401 31.979C461.933 31.979 462.689 32.0899 463.671 32.3115C464.653 32.5332 465.768 32.8254 467.016 33.1881C468.263 33.5508 469.593 33.9639 471.004 34.4274C472.436 34.8909 473.868 35.3745 475.3 35.8783C476.732 36.3821 478.122 36.8758 479.472 37.3594C480.822 37.8431 482.039 38.2864 483.124 38.6894C484.208 39.0723 485.118 39.3947 485.854 39.6567C486.591 39.9186 487.061 40.0798 487.266 40.1403L488.155 46.2462ZM454.62 19.7069L460.143 14.2056L465.788 19.7673L460.204 25.2686L454.62 19.7069ZM407.194 58.2765H399.554V14.6892H407.194V58.2765ZM376.252 67.0121C374.902 67.2539 373.296 67.3748 371.435 67.3748H364.961C362.977 67.3748 361.166 66.9617 359.53 66.1355C357.914 65.3295 356.636 64.1607 355.695 62.6292C354.386 60.5939 353.731 58.1153 353.731 55.1933C353.731 54.1656 353.803 53.148 353.946 52.1404C354.11 51.1127 354.355 50.0548 354.682 48.9666C355.03 47.8583 355.449 46.6895 355.94 45.4603C356.452 44.2109 357.065 42.8406 357.781 41.3494L350.97 38.1151C350.111 39.8683 349.374 41.5005 348.761 43.0119C348.147 44.5232 347.636 45.9741 347.227 47.3646C346.838 48.7348 346.552 50.0749 346.367 51.3847C346.183 52.6946 346.091 54.0145 346.091 55.3445C346.091 59.677 347.104 63.4554 349.129 66.6796C349.988 67.9693 350.98 69.1179 352.105 70.1255C353.23 71.1532 354.467 72.0197 355.818 72.725C357.168 73.4504 358.61 74.0046 360.144 74.3875C361.678 74.7704 363.283 74.9618 364.961 74.9618H371.435C374.728 74.9618 377.52 74.6394 379.811 73.9945C382.122 73.3698 383.994 72.3925 385.425 71.0625C386.878 69.7527 387.931 68.0801 388.586 66.0448C389.24 64.0297 389.568 61.6216 389.568 58.8206C389.568 57.1077 389.128 55.677 388.248 54.5284C387.369 53.3596 385.947 52.5334 383.983 52.0497L373.214 49.3293C373.194 49.2084 373.183 49.0875 373.183 48.9666V48.5736C373.183 47.0623 373.46 45.7122 374.012 44.5232C374.585 43.3343 375.352 42.3267 376.313 41.5005C377.295 40.6743 378.44 40.0496 379.749 39.6264C381.079 39.1831 382.511 38.9615 384.045 38.9615C384.802 38.9615 385.538 39.032 386.254 39.173C386.97 39.2939 387.808 39.4955 388.77 39.7776L390.703 32.5231C389.414 32.1805 388.258 31.9286 387.236 31.7674C386.233 31.6062 385.221 31.5256 384.198 31.5256C381.314 31.5256 378.716 31.9689 376.405 32.8556C374.114 33.7423 372.171 34.9513 370.575 36.4828C368.98 37.9942 367.753 39.7776 366.894 41.833C366.035 43.8683 365.605 46.0346 365.605 48.3318C365.605 49.5409 365.728 50.7802 365.973 52.0497C366.239 53.2991 366.638 54.5888 367.17 55.9188C368.008 56.1203 368.919 56.352 369.9 56.614C370.903 56.8558 371.915 57.1178 372.938 57.3999C373.961 57.6619 374.963 57.9238 375.945 58.1858C376.947 58.4478 377.867 58.6896 378.706 58.9113C379.565 59.1329 380.302 59.3244 380.915 59.4856C381.549 59.6468 382.01 59.7677 382.296 59.8483C382.275 61.3193 382.04 62.5385 381.59 63.5058C381.161 64.473 380.506 65.2388 379.627 65.803C378.747 66.3874 377.622 66.7904 376.252 67.0121ZM339.186 55.2538C339.513 54.6493 339.676 53.9943 339.676 53.289C339.676 52.5636 339.554 51.8986 339.308 51.2941C339.063 50.6895 338.736 50.1656 338.326 49.7223C337.917 49.2789 337.426 48.9364 336.854 48.6945C336.301 48.4527 335.708 48.3318 335.074 48.3318C334.604 48.3318 334.133 48.4023 333.663 48.5434C333.213 48.6643 332.824 48.7953 332.497 48.9364C332.599 47.6467 333.09 46.357 333.97 45.0673C334.849 43.7575 336.24 42.4376 338.142 41.1076L335.136 38.3569C332.517 40.1705 330.615 42.1151 329.429 44.1907C328.263 46.2462 327.68 48.493 327.68 50.9313C327.68 51.8784 327.823 52.7953 328.109 53.682C328.396 54.5485 328.805 55.3243 329.337 56.0095C329.889 56.6745 330.554 57.2085 331.331 57.6115C332.108 58.0145 332.998 58.216 334 58.216C334.696 58.216 335.381 58.0851 336.056 57.8231C336.731 57.5813 337.334 57.2488 337.866 56.8256C338.419 56.3823 338.858 55.8583 339.186 55.2538ZM425.595 40.8355C426.618 39.7675 427.999 39.2335 429.737 39.2335C429.942 39.2335 430.208 39.2637 430.535 39.3242C430.862 39.3645 431.2 39.4652 431.547 39.6264C431.916 39.7877 432.284 40.0295 432.652 40.3519C433.041 40.6743 433.378 41.1076 433.664 41.6517C433.971 42.1957 434.217 42.8809 434.401 43.7071C434.585 44.5131 434.677 45.4905 434.677 46.6391V50.75H429.952C429.257 50.75 428.561 50.6593 427.866 50.4779C427.17 50.2966 426.536 50.0145 425.963 49.6316C425.411 49.2286 424.951 48.7147 424.583 48.09C424.235 47.4653 424.061 46.7096 424.061 45.823C424.061 43.566 424.572 41.9036 425.595 40.8355ZM503.506 63.2942L497.983 68.7955L503.568 74.3573L509.152 68.8559L503.506 63.2942ZM583.833 58.2765H583.621C584.091 58.9415 584.48 59.6669 584.787 60.4528C585.094 61.2589 585.247 61.9843 585.247 62.6292C585.247 64.5033 584.725 66.196 583.682 67.7073C582.639 69.2388 581.228 70.5386 579.448 71.6066C577.669 72.6746 575.592 73.5008 573.22 74.0852C570.867 74.6696 568.362 74.9618 565.703 74.9618H557.848C556.171 74.9618 554.565 74.7704 553.031 74.3875C551.497 74.0046 550.055 73.4504 548.705 72.725C547.355 72.0197 546.117 71.1532 544.992 70.1255C543.867 69.1179 542.875 67.9693 542.016 66.6796C539.991 63.4554 538.979 59.677 538.979 55.3445C538.979 54.0145 539.05 52.6946 539.194 51.3847C539.357 50.0749 539.613 48.7348 539.961 47.3646C540.329 45.9741 540.799 44.5333 541.372 43.0421C541.965 41.5308 542.691 39.8985 543.55 38.1453L550.362 41.3796C549.646 42.8708 549.053 44.231 548.582 45.4603C548.112 46.6895 547.723 47.8583 547.416 48.9666C547.13 50.0548 546.925 51.1127 546.803 52.1404C546.68 53.148 546.619 54.1656 546.619 55.1933C546.619 58.1153 547.273 60.5939 548.582 62.6292C549.523 64.1607 550.802 65.3295 552.417 66.1355C554.054 66.9617 555.864 67.3748 557.848 67.3748H565.703C567.237 67.3748 568.689 67.2338 570.06 66.9516C571.43 66.6695 572.637 66.2766 573.68 65.7728C574.723 65.269 575.572 64.6846 576.227 64.0196C576.881 63.3748 577.26 62.6695 577.362 61.9037C576.769 61.279 576.012 60.745 575.091 60.3017C574.191 59.8785 573.158 59.5158 571.992 59.2135C570.847 58.9314 569.599 58.7098 568.249 58.5485C566.92 58.4075 565.529 58.3067 564.077 58.2463L564.291 50.75H583.833H591.813H597.272C597.517 50.75 597.865 50.7197 598.315 50.6593C598.785 50.5787 599.246 50.3873 599.696 50.085C600.166 49.7827 600.575 49.3293 600.923 48.7248C601.271 48.1001 601.444 47.2537 601.444 46.1857C601.444 45.7424 601.404 45.2084 601.322 44.5837C601.26 43.9388 601.168 43.2537 601.046 42.5282C600.923 41.8028 600.78 41.0673 600.616 40.3217C600.473 39.5559 600.33 38.8405 600.186 38.1756C600.043 37.4904 599.9 36.8758 599.757 36.3317C599.614 35.7675 599.501 35.3342 599.419 35.0319L606.63 32.8858C606.671 33.0269 606.752 33.3594 606.875 33.8833C607.018 34.4073 607.172 35.0521 607.335 35.8178C607.499 36.5634 607.663 37.3997 607.826 38.3267C608.01 39.2536 608.174 40.1907 608.317 41.1378C608.481 42.0648 608.604 42.9716 608.685 43.8582C608.788 44.7449 608.839 45.5207 608.839 46.1857C608.839 48.2613 608.491 50.0648 607.796 51.5963C607.1 53.1077 606.19 54.3571 605.065 55.3445C603.94 56.3319 602.672 57.0674 601.26 57.5511C599.869 58.0347 598.468 58.2765 597.057 58.2765H591.813H583.833ZM597.916 69.5814L603.071 74.72L608.286 69.5814L603.009 64.3824L597.916 69.5814ZM585.06 69.6116L590.215 74.7502L595.4 69.6116L590.123 64.4126L585.06 69.6116ZM629.469 39.2335C627.73 39.2335 626.349 39.7675 625.327 40.8355C624.304 41.9036 623.793 43.566 623.793 45.823C623.793 46.7096 623.966 47.4653 624.314 48.09C624.682 48.7147 625.143 49.2286 625.695 49.6316C626.268 50.0145 626.902 50.2966 627.597 50.4779C628.293 50.6593 628.988 50.75 629.683 50.75H634.408V46.6391C634.408 45.4905 634.316 44.5131 634.132 43.7071C633.948 42.8809 633.703 42.1957 633.396 41.6517C633.11 41.1076 632.772 40.6743 632.383 40.3519C632.015 40.0295 631.647 39.7877 631.279 39.6264C630.931 39.4652 630.594 39.3645 630.266 39.3242C629.939 39.2637 629.673 39.2335 629.469 39.2335ZM688.36 66.9819C689.996 66.9819 691.448 66.9214 692.717 66.8005C694.005 66.6997 695.141 66.5385 696.122 66.3169C697.125 66.1154 697.994 65.8433 698.73 65.5008C699.487 65.1783 700.142 64.7854 700.694 64.3219C701.553 63.6368 702.197 62.8408 702.627 61.934C703.077 61.0272 703.343 59.808 703.425 58.2765H698.7C697.677 58.2765 696.634 58.1959 695.57 58.0347C694.506 57.8735 693.484 57.6014 692.502 57.2185C691.52 56.8155 690.589 56.3017 689.71 55.677C688.851 55.0523 688.094 54.2865 687.439 53.3797C686.805 52.4528 686.294 51.3646 685.905 50.1152C685.537 48.8658 685.353 47.4351 685.353 45.823C685.353 44.4325 685.476 43.2033 685.721 42.1353C685.967 41.0471 686.273 40.0899 686.642 39.2637C687.03 38.4375 687.46 37.7221 687.93 37.1176C688.401 36.4929 688.851 35.9488 689.28 35.4854C690.508 34.2763 691.898 33.3493 693.453 32.7045C695.008 32.0395 696.685 31.707 698.485 31.707C700.714 31.707 702.617 32.0899 704.192 32.8556C705.787 33.6012 707.086 34.639 708.088 35.969C709.111 37.299 709.858 38.8808 710.328 40.7146C710.798 42.5282 711.034 44.5031 711.034 46.6391V50.75H714.746C716.792 50.75 718.387 50.6291 719.533 50.3873C720.698 50.1454 721.517 49.7928 721.987 49.3293C722.314 49.0472 722.55 48.6139 722.693 48.0295C722.856 47.425 722.938 46.619 722.938 45.6114V14.6892H730.547V45.6114C730.547 46.3368 730.506 47.0925 730.425 47.8784C730.363 48.6643 730.22 49.4603 729.995 50.2663C729.77 51.0724 729.443 51.8684 729.013 52.6543C728.584 53.42 728.011 54.1455 727.295 54.8306C726.661 55.415 725.945 55.9289 725.147 56.3722C724.35 56.7954 723.439 57.148 722.417 57.4301C721.414 57.7123 720.279 57.9239 719.011 58.0649C718.16 58.1596 717.239 58.2225 716.25 58.2536V58.2765H714.746H711.003C710.921 61.0372 710.42 63.3647 709.5 65.2589C708.6 67.1532 707.25 68.8056 705.45 70.2162C704.509 70.9416 703.486 71.5663 702.381 72.0902C701.277 72.6343 700.039 73.0877 698.669 73.4504C697.298 73.8132 695.764 74.0751 694.067 74.2363C692.389 74.4177 690.487 74.5084 688.36 74.5084V66.9819ZM698.485 39.2335C696.746 39.2335 695.365 39.7675 694.343 40.8355C693.32 41.9036 692.809 43.566 692.809 45.823C692.809 46.7096 692.982 47.4653 693.33 48.09C693.698 48.7147 694.159 49.2286 694.711 49.6316C695.284 50.0145 695.918 50.2966 696.613 50.4779C697.309 50.6593 698.004 50.75 698.7 50.75H703.425V46.6391C703.425 45.4905 703.333 44.5131 703.148 43.7071C702.964 42.8809 702.719 42.1957 702.412 41.6517C702.126 41.1076 701.788 40.6743 701.4 40.3519C701.031 40.0295 700.663 39.7877 700.295 39.6264C699.947 39.4652 699.61 39.3645 699.283 39.3242C698.955 39.2637 698.689 39.2335 698.485 39.2335ZM784.996 58.2765H783.83H783.762C782.948 58.2738 782.173 58.2234 781.437 58.1254C780.701 58.0246 779.974 57.7425 779.259 57.279C779.013 59.8785 778.41 62.2362 777.448 64.3521C776.487 66.468 775.198 68.2715 773.582 69.7627C771.987 71.2741 770.074 72.4429 767.845 73.2691C765.615 74.0953 763.11 74.5084 760.328 74.5084H756.493V66.9819H760.328C762.291 66.9819 763.989 66.7804 765.421 66.3773C766.853 65.9743 768.029 65.3295 768.949 64.4428C769.87 63.5561 770.555 62.3974 771.005 60.9667C771.455 59.5561 771.68 57.8332 771.68 55.7979V37.3897H779.32V46.4275C779.32 47.3545 779.514 48.1001 779.903 48.6643C780.312 49.2286 780.772 49.6719 781.284 49.9943C781.815 50.2966 782.327 50.4981 782.818 50.5988C783.309 50.6996 783.646 50.75 783.83 50.75H784.996H787.229C787.802 50.75 788.303 50.7601 788.733 50.7802H790.021C790.41 50.7802 790.799 50.7701 791.187 50.75C791.596 50.7298 792.046 50.6895 792.537 50.6291C792.005 50.0245 791.525 49.4401 791.095 48.8759C790.686 48.2915 790.328 47.687 790.021 47.0623C789.735 46.4174 789.51 45.7424 789.346 45.0371C789.203 44.3116 789.132 43.5157 789.132 42.6491C789.132 40.9967 789.449 39.4753 790.083 38.0849C790.737 36.6944 791.627 35.5055 792.752 34.5181C793.898 33.5307 795.227 32.7649 796.741 32.2208C798.275 31.6566 799.921 31.3745 801.68 31.3745C803.665 31.3745 805.424 31.7674 806.958 32.5533C808.512 33.3191 809.811 34.2964 810.854 35.4854C811.918 36.6541 812.716 37.9237 813.247 39.294C813.8 40.6642 814.076 41.9439 814.076 43.1328C814.076 44.1 813.974 44.9867 813.769 45.7928C813.585 46.5988 813.319 47.3646 812.971 48.09C812.624 48.7953 812.194 49.4704 811.683 50.1152C811.171 50.7601 810.599 51.3948 809.965 52.0195C810.599 52.221 811.253 52.4125 811.928 52.5938C812.603 52.755 813.258 52.8356 813.892 52.8356C814.526 52.8356 815.191 52.7953 815.886 52.7147C816.582 52.614 817.236 52.4326 817.85 52.1706C818.484 51.8885 819.036 51.5057 819.507 51.022C819.997 50.5384 820.366 49.9036 820.611 49.1177C820.693 48.8356 820.734 48.5434 820.734 48.2411C820.734 47.6971 820.57 47.0018 820.243 46.1555C819.916 45.3091 819.312 44.231 818.433 42.9212C817.574 41.6114 816.5 40.1705 815.211 38.5987C813.922 37.0068 812.511 35.2738 810.977 33.3997L807.786 29.5004L813.554 25.2384C814.884 26.9714 816.234 28.7246 817.604 30.4979C818.177 31.2636 818.78 32.0596 819.415 32.8858C820.069 33.712 820.724 34.5584 821.378 35.4249C822.053 36.2713 822.708 37.1176 823.342 37.964C823.976 38.8103 824.59 39.6164 825.183 40.3821C826.451 42.0547 827.279 43.8784 827.668 45.8532C827.791 46.5585 827.852 47.2638 827.852 47.9691C827.852 49.2386 827.637 50.5082 827.208 51.7777C826.799 52.9868 826.195 54.0951 825.398 55.1027C824.62 56.1102 823.669 56.9767 822.544 57.7022C821.419 58.4276 820.13 58.9919 818.678 59.3949C817.226 59.7979 815.63 59.9994 813.892 59.9994C812.419 59.9994 810.895 59.8483 809.32 59.546C807.745 59.2639 806.14 58.7198 804.503 57.9138C804.135 57.7526 803.777 57.5914 803.429 57.4301C803.123 57.2891 802.805 57.148 802.478 57.007C802.151 56.8457 801.875 56.7047 801.65 56.5838C799.686 57.1682 797.508 57.5914 795.115 57.8533C792.742 58.1354 790.113 58.2765 787.229 58.2765H784.996ZM796.71 44.6441C796.485 44.0597 796.372 43.3947 796.372 42.6491C796.372 42.0446 796.516 41.4703 796.802 40.9262C797.088 40.3821 797.477 39.9086 797.968 39.5055C798.459 39.0824 799.021 38.7499 799.655 38.508C800.31 38.2662 800.985 38.1453 801.68 38.1453C802.151 38.1453 802.683 38.2461 803.276 38.4476C803.89 38.6491 804.462 38.9615 804.994 39.3846C805.526 39.8078 805.976 40.3418 806.344 40.9867C806.712 41.6315 806.896 42.3771 806.896 43.2235C806.896 43.9288 806.763 44.5736 806.497 45.158C806.232 45.7424 805.874 46.2764 805.424 46.76C804.994 47.2235 804.483 47.6467 803.89 48.0295C803.296 48.4124 802.683 48.755 802.049 49.0573C801.108 48.5535 800.279 48.0799 799.563 47.6366C798.868 47.1731 798.275 46.6996 797.784 46.2159C797.313 45.7323 796.955 45.2084 796.71 44.6441ZM2.20909 43.8885H9.08182L9.87955 10.5481H1.44205L2.20909 43.8885ZM0 56.7047L5.49205 62.2061L11.2296 56.7047L5.70682 51.1127L0 56.7047Z" fill="white"/>
</svg>
