<svg width="30" height="30" viewBox="0 0 30 30" fill="none" xmlns="http://www.w3.org/2000/svg">
<rect width="30" height="30" rx="5" fill="#545454"/>
<g clip-path="url(#clip0)">
<path d="M22.5675 10.7357C22.575 10.9007 22.575 11.0582 22.575 11.2232C22.5825 16.2257 18.7725 22.0007 11.805 22.0007C9.75 22.0007 7.7325 21.4082 6 20.2982C6.3 20.3357 6.6 20.3507 6.9 20.3507C8.6025 20.3507 10.26 19.7807 11.6025 18.7232C9.9825 18.6932 8.5575 17.6357 8.0625 16.0907C8.6325 16.2032 9.2175 16.1807 9.7725 16.0232C8.01 15.6782 6.7425 14.1257 6.735 12.3182C6.735 12.3032 6.735 12.2882 6.735 12.2732C7.26 12.5657 7.8525 12.7307 8.4525 12.7457C6.795 11.6357 6.2775 9.42318 7.2825 7.69068C9.21 10.0607 12.045 11.4932 15.09 11.6507C14.7825 10.3382 15.2025 8.95818 16.185 8.02818C17.7075 6.59568 20.1075 6.67068 21.5475 8.19318C22.395 8.02818 23.2125 7.71318 23.955 7.27068C23.67 8.14818 23.0775 8.89068 22.29 9.36318C23.04 9.27318 23.775 9.07068 24.465 8.77068C23.955 9.53568 23.31 10.1957 22.5675 10.7357Z" fill="#B9BBBE"/>
</g>
<defs>
<clipPath id="clip0">
<rect width="18.4575" height="15" fill="white" transform="translate(6 7)"/>
</clipPath>
</defs>
</svg>
