<svg viewBox="0 0 24 24" fill="none" xmlns="http://www.w3.org/2000/svg">
<path d="M4.49947 18.0503C3.05947 16.5384 2.18591 14.5755 2.02646 12.4937C1.86702 10.4118 2.43156 8.33884 3.62453 6.62527" stroke="#585858" stroke-width="2.5" stroke-linecap="round" stroke-linejoin="round"/>
<path d="M20.2925 6.52518C21.5274 8.23616 22.1243 10.3254 21.98 12.4305C21.8357 14.5356 20.9592 16.5238 19.5024 18.0502" stroke="#585858" stroke-width="2.5" stroke-linecap="round" stroke-linejoin="round"/>
<path d="M15.9478 7.60001C16.6496 8.86595 16.9783 10.3049 16.8954 11.75C16.6245 13.3363 15.9792 14.8351 15.013 16.1221C14.0469 17.4091 12.788 18.4471 11.3404 19.1501C10.0291 19.8953 8.58579 20.3792 7.09033 20.575" stroke="#585858" stroke-width="2.5" stroke-linecap="round" stroke-linejoin="round"/>
<path d="M8.05154 7.60001C7.35454 8.86779 7.02625 10.3053 7.10396 11.75C7.37484 13.3363 8.02019 14.8351 8.9863 16.1221C9.9524 17.4091 11.2114 18.4471 12.659 19.1501C13.9702 19.8953 15.4135 20.3792 16.909 20.575" stroke="#585858" stroke-width="2.5" stroke-linecap="round" stroke-linejoin="round"/>
<path d="M12 6.87491V22" stroke="#585858" stroke-width="2.5" stroke-linecap="round" stroke-linejoin="round"/>
<path d="M9.16866 2C9.16302 2.187 9.19183 2.37344 9.25365 2.55001C9.32139 2.72373 9.41864 2.88444 9.54113 3.02502C9.66954 3.15938 9.82117 3.26945 9.98867 3.34999C10.1576 3.42755 10.3403 3.47008 10.5261 3.475C10.7112 3.47517 10.8955 3.44993 11.0737 3.4C11.2467 3.32675 11.4063 3.22539 11.5461 3.10001C11.6853 2.97434 11.7968 2.82107 11.8736 2.64999C11.9527 2.48584 11.997 2.30711 12.0036 2.12501C12.0062 2.08338 12.0062 2.04163 12.0036 2" stroke="#585858" stroke-width="2.5" stroke-linecap="round" stroke-linejoin="round"/>
<path d="M12.001 2C11.994 2.18708 12.0228 2.37379 12.086 2.55001C12.1532 2.724 12.2505 2.8848 12.3735 3.02502C12.5012 3.16015 12.653 3.27033 12.8211 3.34999C12.9891 3.42755 13.1711 3.47009 13.356 3.475C13.5411 3.47517 13.7253 3.44993 13.9035 3.4C14.0765 3.32675 14.2362 3.22539 14.3761 3.10001C14.5152 2.97429 14.6267 2.82104 14.7035 2.64999C14.7826 2.48581 14.8268 2.3071 14.8336 2.12501C14.836 2.08338 14.836 2.04163 14.8336 2" stroke="#585858" stroke-width="2.5" stroke-linecap="round" stroke-linejoin="round"/>
</svg>
