<svg width="200" height="65" viewBox="0 0 200 65" fill="none" xmlns="http://www.w3.org/2000/svg">
<path d="M104.884 10.8516H100.732C100.163 10.8516 99.708 11.3067 99.708 11.8754V41.9073H87.3084V17.0514H62.4525V37.7552C62.4525 43.4999 67.0597 48.1071 72.8044 48.1071H81.1087V53.4537C81.1087 56.2976 78.7767 58.6296 75.9327 58.6296H72.8044C72.2356 58.6296 71.7806 59.0846 71.7806 59.6534V63.8055C71.7806 64.3743 72.2356 64.8294 72.8044 64.8294H76.9565C82.7013 64.8294 87.3084 60.2222 87.3084 54.4775V48.1071H105.965V11.8754C105.908 11.3067 105.453 10.8516 104.884 10.8516ZM81.0518 41.9073H73.8282C70.9843 41.9073 68.6523 39.5753 68.6523 36.7314V23.2511H81.0518V41.9073Z" fill="#FFD100"/>
<path d="M45.901 17.0506H37.483C37.3692 17.0506 37.3692 16.9368 37.4261 16.8799L52.3851 10.9646C52.7264 10.7939 52.9539 10.4527 52.9539 10.0545V6.18678C52.9539 5.39048 52.1576 4.93545 51.4751 5.27672L36.0041 11.4196C33.1033 12.8984 31.2263 15.8561 31.2263 19.1551V23.3072H44.8772C47.7211 23.3072 50.0531 25.6392 50.0531 28.4832V41.9634H24.8559V17.0506H0V37.7544C0 43.4991 4.60716 48.1063 10.3519 48.1063H18.6562V53.6235C18.6562 56.4674 16.3241 58.7994 13.4802 58.7994H10.3519C9.78311 58.7994 9.32808 59.2545 9.32808 59.8232V63.9754C9.32808 64.5442 9.78311 64.9992 10.3519 64.9992H14.504C20.2488 64.9992 24.8559 60.392 24.8559 54.6473V48.1063H56.2529V27.4025C56.2529 21.7146 51.5888 17.0506 45.901 17.0506ZM18.6562 41.9065H11.3757C8.53178 41.9065 6.19976 39.5745 6.19976 36.7306V23.2503H18.5993V41.9065H18.6562Z" fill="#FFD100"/>
<path d="M36.4595 5.73256L52.0443 0.0447089C52.4993 -0.125927 52.9543 0.215344 52.9543 0.670373V2.31985C52.9543 2.60424 52.7837 2.88864 52.4993 2.94551L36.9146 8.63337C36.4595 8.804 36.0045 8.46273 36.0045 8.0077V6.35823C36.0045 6.07383 36.1752 5.78944 36.4595 5.73256Z" fill="#EE2737"/>
<path d="M188.382 13.98V9.94159C188.382 9.48656 187.984 9.08841 187.529 9.08841H179.964C179.509 9.08841 179.111 9.48656 179.111 9.94159V13.98H171.774C171.319 13.98 170.92 14.3781 170.92 14.8331V19.3265C170.92 19.7816 171.319 20.1797 171.774 20.1797H195.378C195.833 20.1797 196.231 19.7816 196.231 19.3265V14.8331C196.231 14.3781 195.833 13.98 195.378 13.98H188.382Z" fill="#EE2737"/>
<path d="M198.051 26.3795H193.899C193.33 26.3795 192.875 26.8345 192.875 27.4033V41.9073H186.675V33.603C186.675 33.0343 186.22 32.5792 185.651 32.5792H181.499C180.93 32.5792 180.475 33.0343 180.475 33.603V41.9073H179.451C176.607 41.9073 174.275 39.5753 174.275 36.7314V27.4033C174.275 26.8345 173.82 26.3795 173.252 26.3795H169.1C168.531 26.3795 168.076 26.8345 168.076 27.4033V37.7552C168.076 39.234 168.36 40.5991 168.929 41.9073H155.619V17.0514H142.48C137.703 17.0514 133.835 20.9191 133.835 25.6969V41.9073H121.435V24.275C121.435 23.7062 120.98 23.2512 120.411 23.2512H116.259C115.691 23.2512 115.236 23.7062 115.236 24.275V53.5674C115.236 56.4113 112.904 58.7434 110.06 58.7434H106.761C106.306 58.7434 105.907 59.1415 105.907 59.5965V64.0899C105.907 64.545 106.306 64.9431 106.761 64.9431H111.083C116.828 64.9431 121.435 60.336 121.435 54.5912V48.1071H133.835V65H146.974C151.752 65 155.619 61.1323 155.619 56.3545V48.1071H169.043C169.327 48.1071 169.555 47.9933 169.782 47.8227L171.204 46.4007C172.342 47.3108 173.764 47.9364 175.299 48.1639H181.442C181.727 48.1639 181.954 48.0502 182.182 47.8796L183.604 46.4576C184.798 47.3677 186.163 47.9933 187.699 48.2208H199.075V27.4033C199.075 26.8345 198.62 26.3795 198.051 26.3795ZM149.42 54.4775C149.42 56.8664 147.486 58.8002 145.097 58.8002H140.091V48.1071H149.42V54.4775ZM149.42 41.9073H140.091V27.5739C140.091 25.185 142.025 23.2512 144.414 23.2512H149.42V41.9073Z" fill="#FFD100"/>
</svg>
