<svg width="38" height="38" viewBox="0 0 38 38" fill="none" xmlns="http://www.w3.org/2000/svg">
<path d="M34.493 32.4477L29.1221 27.1966L28.9962 27.0052C28.7622 26.7721 28.4421 26.6409 28.1081 26.6409C27.774 26.6409 27.454 26.7721 27.2199 27.0052C22.6554 31.1927 15.6221 31.4203 10.7844 27.5371C5.94666 23.6538 4.80573 16.8646 8.11826 11.6721C11.4308 6.47964 18.1689 4.49507 23.8638 7.03459C29.5588 9.5741 32.4435 15.8497 30.6047 21.6994C30.4723 22.122 30.5805 22.5815 30.8887 22.9049C31.1968 23.2284 31.658 23.3665 32.0985 23.2673C32.5391 23.1681 32.892 22.8467 33.0244 22.4241C35.2225 15.4823 31.9027 8.0118 25.2127 4.8454C18.5226 1.679 10.4701 3.76691 6.26415 9.75846C2.05823 15.75 2.96122 23.8471 8.38896 28.8117C13.8167 33.7763 22.1403 34.1186 27.9752 29.617L32.7307 34.2664C33.2219 34.7445 34.0159 34.7445 34.507 34.2664C34.9977 33.7816 34.9977 33.0009 34.507 32.5161L34.493 32.4477Z" fill="#C4C4C4"/>
</svg>
