<svg width="25" height="25" viewBox="0 0 25 25" fill="none" xmlns="http://www.w3.org/2000/svg">
<path d="M17.5413 22.8361C17.7834 23.3325 17.5784 23.9352 17.0643 24.1369C15.3943 24.7919 13.5989 25.0813 11.8001 24.9804C9.6677 24.8608 7.60148 24.1968 5.79858 23.0518C3.99568 21.9068 2.51624 20.3189 1.50137 18.4397C0.486502 16.5605 -0.0299293 14.4525 0.00133975 12.317C0.0326088 10.1815 0.610535 8.08954 1.67999 6.24082C2.74944 4.3921 4.27474 2.84823 6.1104 1.75649C7.94605 0.664755 10.0308 0.0615668 12.1658 0.00446792C13.9668 -0.0436987 15.7529 0.298088 17.403 1.00172C17.911 1.21835 18.0983 1.82681 17.8417 2.3159C17.5852 2.80499 16.9822 2.98867 16.4709 2.77981C15.1262 2.23047 13.6786 1.96473 12.2193 2.00375C10.4259 2.05172 8.67468 2.55839 7.13273 3.47545C5.59079 4.39251 4.30953 5.68936 3.41119 7.24229C2.51285 8.79522 2.02739 10.5524 2.00113 12.3463C1.97486 14.1401 2.40866 15.9108 3.26115 17.4894C4.11364 19.0679 5.35638 20.4017 6.87081 21.3635C8.38525 22.3253 10.1209 22.8831 11.9121 22.9835C13.3696 23.0653 14.8244 22.842 16.1846 22.3323C16.7018 22.1385 17.2992 22.3397 17.5413 22.8361Z" fill="#C4C4C4"/>
<path d="M23.7146 15.0463C24.2531 15.1686 24.7931 14.8314 24.8719 14.2847C25.1571 12.308 24.9651 10.2865 24.3054 8.3911C23.6457 6.49573 22.5411 4.79183 21.0902 3.41933C20.689 3.0398 20.0563 3.11067 19.7101 3.54092C19.3638 3.97118 19.4358 4.59747 19.8312 4.98308C20.9931 6.11634 21.88 7.50705 22.4165 9.04852C22.953 10.59 23.1213 12.2308 22.9141 13.8406C22.8435 14.3884 23.176 14.924 23.7146 15.0463Z" fill="#C4C4C4"/>
<path d="M18.8506 22.0875C19.1556 22.5479 19.779 22.677 20.2136 22.3362C21.6084 21.2424 22.7549 19.8641 23.5764 18.2934C23.8324 17.804 23.5919 17.2145 23.0836 16.9985C22.5754 16.7825 21.9923 17.0222 21.7289 17.5077C21.0702 18.7217 20.1783 19.794 19.1045 20.6627C18.6752 21.0101 18.5456 21.6271 18.8506 22.0875Z" fill="#C4C4C4"/>
</svg>
