<svg viewBox="0 0 20 20" fill="none" xmlns="http://www.w3.org/2000/svg">
<path d="M20 10C20 8.22222 19.5556 6.66667 18.8889 5.33333C17.7778 3.33333 16 1.55556 13.7778 0.666667C12.6667 0.222222 11.3333 0 10.2222 0C10.2222 0 10.2222 0 10 0C10 0 10 0 9.77778 0C8.88889 0 8 0.222222 7.11111 0.444444C4.88889 1.11111 2.88889 2.44444 1.77778 4.44444C0.666667 6 0 8 0 9.77778V10V10.2222C0 10.4444 0 10.6667 0 10.8889C0.222222 13.1111 1.33333 15.3333 2.88889 16.8889C4.88889 18.8889 7.33333 20 10 20C12.2222 20 14.6667 19.1111 16.4444 17.7778C18.2222 16.2222 19.5556 14.2222 20 12C20 11.3333 20 10.6667 20 10ZM16.8889 6.44445C17.3333 7.11111 17.5556 8 17.7778 8.88889H14.4444C14.4444 6.66667 14 4.66667 13.3333 2.88889C14.6667 3.55556 16 4.88889 16.8889 6.44445ZM10.2222 17.7778C10 17.7778 10 17.7778 9.77778 17.7778C9.11111 17.3333 8 15.1111 7.77778 11.1111H12.2222C12 14.8889 10.8889 17.3333 10.2222 17.7778ZM7.77778 8.88889C8 4.66667 9.33333 2.22222 10 2.22222C10.6667 2.22222 12 4.66667 12.2222 8.88889H7.77778ZM3.55556 5.77778C4.44444 4.44444 5.55556 3.55556 6.66667 2.88889C6 4.66667 5.77778 6.66667 5.55556 8.88889H2.44444C2.44444 7.77778 2.88889 6.66667 3.55556 5.77778ZM2.22222 11.1111H5.55556C5.55556 13.3333 6 15.3333 6.66667 17.1111C6 16.6667 5.11111 16.2222 4.44444 15.5556C3.33333 14.2222 2.66667 12.6667 2.22222 11.1111ZM14.8889 16C14.4444 16.4444 13.7778 16.6667 13.3333 17.1111C14 15.3333 14.2222 13.3333 14.4444 11.1111H17.7778C17.7778 11.3333 17.7778 11.3333 17.7778 11.5556C17.3333 13.3333 16.2222 14.8889 14.8889 16Z" fill="#585858"/>
</svg>
